<?xml version="1.0" encoding="UTF-8"?>
<svg id="Layer_1" data-name="Layer 1" xmlns="http://www.w3.org/2000/svg" width="512" height="512" viewBox="0 0 512 512">
  <circle cx="245.95" cy="256" r="235.73" fill="#f96a5c"/>
  <path d="M401,161.25s61.27,24.84,100.78,5.93l-19.25-40.01s-22.56,18.77-51.26,24.63c0,0,54.99-33.66,40.45-87.7l-54.48,11.2s29.73,55.08-16.25,85.96Z" fill="#132b42"/>
  <g>
    <path d="M105.65,148.3c24.91,9.91,69.9,21.72,142.78,21.72,58.83,0,104.99-10.75,137.6-22.28-32.38-41.84-83.08-68.78-140.08-68.78s-108.1,27.16-140.47,69.28c.06.02.11.04.16.07Z" fill="#132b42"/>
    <path d="M248.43,188.55c-76.01,0-124.32-12.34-153.67-24.73-16.41,26.85-25.86,58.41-25.86,92.18,0,97.78,79.27,177.05,177.05,177.05s177.05-79.27,177.05-177.05c0-33.91-9.54-65.58-26.07-92.5-34.55,12.76-84.43,25.05-148.5,25.05Z" fill="#132b42"/>
  </g>
  <g>
    <path d="M401.27,203.92c-28.54-25.27-84.79,20.78-155.3,20.79-70.52-.01-126.77-46.07-155.3-20.79-28.54,25.28,28.13,113.34,57.89,117.83,29.46,4.44,96.08-40.66,97.41-41.56,1.33.9,67.95,46,97.41,41.56,29.76-4.48,86.43-92.55,57.89-117.83Z" fill="#fff"/>
    <path d="M217.87,257.73s-47.7,42.4-69.72,33.02c-22.02-9.38-34.25-66.86-34.25-66.86,0,0,27.32,26.5,103.97,33.84Z" fill="#132b42"/>
    <path d="M274.07,257.73s47.7,42.4,69.72,33.02c22.02-9.38,34.25-66.86,34.25-66.86,0,0-27.32,26.5-103.97,33.84Z" fill="#132b42"/>
  </g>
</svg>